<svg width="138" height="137" viewBox="0 0 138 137" fill="none" xmlns="http://www.w3.org/2000/svg">
<circle cx="69" cy="68.5" r="68.5" fill="white"/>
<g filter="url(#filter0_d_1055_2110)">
<path d="M38.7313 69.4754C38.5292 68.162 38.9737 65.1714 42.3684 63.7166C45.7631 62.2617 48.8345 64.5248 49.9459 65.8382C49.0502 63.7385 48.2207 58.9198 52.0675 56.4421C55.0985 54.9266 58.1295 55.5327 59.3419 58.2607C61.0823 58.2395 64.5572 58.8178 65.0208 61.2505C64.718 58.7733 65.2441 54.0229 69.6472 52.805C69.8493 51.5926 70.9808 49.289 73.8906 49.774C77.5277 50.3802 79.0432 53.4112 79.0432 53.4112C79.8378 52.1767 82.0332 49.9504 84.458 50.9203C87.489 52.1327 91.5112 54.0834 92.0764 60.6855C94.7169 60.8086 99.9291 62.739 99.6538 69.4754H38.7313Z" fill="#FF8036"/>
</g>
<path fill-rule="evenodd" clip-rule="evenodd" d="M100.463 69.1061C103.154 69.1061 105.077 71.7094 104.287 74.2813L92.3987 112.958C91.8827 114.637 90.3317 115.783 88.5752 115.783H49.3242C47.5677 115.783 46.0168 114.637 45.5007 112.958L33.6128 74.2813C32.8223 71.7094 34.7456 69.1061 37.4363 69.1061H100.463Z" fill="#1A2232"/>
<path fill-rule="evenodd" clip-rule="evenodd" d="M57.4823 28.0645L65.969 20.423V39.1844L57.4823 46.8259V28.0645ZM51.4204 33.5227L42.9336 41.1642V59.9256L51.4204 52.2841V33.5227ZM81.5429 25.1617L72.031 33.7262V14.9648L72.2135 14.8004C73.8552 13.3222 76.3844 13.4548 77.8626 15.0965L81.8389 19.5126C83.3171 21.1543 83.1846 23.6835 81.5429 25.1617ZM25.9018 56.4997C24.2601 57.9779 24.1275 60.5071 25.6057 62.1488L29.582 66.5649C31.0602 68.2066 33.5894 68.3392 35.2311 66.861L36.8717 65.3838V46.6224L25.9018 56.4997Z" fill="#1A2232"/>
<g filter="url(#filter1_d_1055_2110)">
<path d="M77.9137 83.6548C78.0147 84.1195 78.0248 84.5944 77.944 85.0794C77.8834 85.5441 77.7924 85.9684 77.6712 86.3524C77.4287 87.1404 77.1458 88.0194 76.8225 88.9893C76.4992 89.9592 76.1759 90.9291 75.8526 91.899C75.5293 92.869 75.2161 93.7884 74.913 94.6572C74.6099 95.5059 74.3573 96.2131 74.1553 96.7789C73.9532 97.3043 73.741 97.9004 73.5188 98.5672C73.2965 99.234 73.0237 99.8907 72.7004 100.537C72.3973 101.164 72.0336 101.74 71.6092 102.265C71.2051 102.79 70.7101 103.174 70.1241 103.417C69.5381 103.659 69.0026 103.72 68.5177 103.599C68.0327 103.457 67.5983 103.215 67.2143 102.871C66.8304 102.507 66.4768 102.063 66.1535 101.538C65.8504 100.992 65.5776 100.436 65.3351 99.8705C65.0927 99.3047 64.8704 98.7592 64.6683 98.2338C64.4663 97.6882 64.2844 97.2235 64.1227 96.8395C63.4963 95.4655 62.9306 94.0106 62.4254 92.4749C61.9202 90.9392 61.405 89.4743 60.8796 88.08C60.7382 87.6759 60.5765 87.1909 60.3946 86.6252C60.2128 86.0392 60.0915 85.4633 60.0309 84.8975C59.9905 84.3115 60.0612 83.7861 60.2431 83.3214C60.425 82.8364 60.8089 82.503 61.3949 82.3212C61.5161 82.2808 61.6373 82.2504 61.7586 82.2302C61.9 82.1898 62.0314 82.1595 62.1526 82.1393C62.2941 82.1393 62.4254 82.1494 62.5466 82.1696C62.6679 82.1898 62.7992 82.2403 62.9407 82.3212C63.0417 82.3616 63.1427 82.4121 63.2438 82.4727C63.3448 82.5131 63.4357 82.5738 63.5165 82.6546C63.5974 82.7556 63.6681 82.8566 63.7287 82.9577C63.8095 83.0587 63.8904 83.1597 63.9712 83.2608C64.0318 83.4022 64.0823 83.5336 64.1227 83.6548C64.1834 83.7558 64.2339 83.8569 64.2743 83.9579C64.3147 84.0993 64.3652 84.2307 64.4258 84.3519C64.4865 84.453 64.537 84.554 64.5774 84.655L64.7592 85.1703L69.1238 97.6276L73.4278 85.2006L73.64 84.6853C73.6804 84.5843 73.7208 84.4833 73.7612 84.3822C73.8016 84.261 73.8421 84.1297 73.8825 83.9882C73.9229 83.8872 73.9633 83.7861 74.0037 83.6851C74.0643 83.5639 74.1351 83.4426 74.2159 83.3214C74.2765 83.2204 74.3371 83.1193 74.3977 83.0183C74.4786 82.8971 74.5594 82.7859 74.6402 82.6849C74.7008 82.6041 74.7716 82.5333 74.8524 82.4727C74.9534 82.4121 75.0443 82.3616 75.1252 82.3212C75.2868 82.2403 75.4283 82.1898 75.5495 82.1696C75.691 82.1494 75.8122 82.1393 75.9132 82.1393C76.0345 82.1595 76.1557 82.1898 76.2769 82.2302C76.4184 82.2504 76.5497 82.2808 76.671 82.3212C77.0549 82.4222 77.3378 82.594 77.5196 82.8364C77.7217 83.0789 77.8531 83.3517 77.9137 83.6548Z" fill="#D9D9D9"/>
</g>
<defs>
<filter id="filter0_d_1055_2110" x="34.6903" y="43.7079" width="68.974" height="27.7675" filterUnits="userSpaceOnUse" color-interpolation-filters="sRGB">
<feFlood flood-opacity="0" result="BackgroundImageFix"/>
<feColorMatrix in="SourceAlpha" type="matrix" values="0 0 0 0 0 0 0 0 0 0 0 0 0 0 0 0 0 0 127 0" result="hardAlpha"/>
<feOffset dy="-2"/>
<feGaussianBlur stdDeviation="2"/>
<feComposite in2="hardAlpha" operator="out"/>
<feColorMatrix type="matrix" values="0 0 0 0 1 0 0 0 0 0.50125 0 0 0 0 0.2125 0 0 0 0.56 0"/>
<feBlend mode="normal" in2="BackgroundImageFix" result="effect1_dropShadow_1055_2110"/>
<feBlend mode="normal" in="SourceGraphic" in2="effect1_dropShadow_1055_2110" result="shape"/>
</filter>
<filter id="filter1_d_1055_2110" x="56.0199" y="77.1393" width="25.978" height="29.5199" filterUnits="userSpaceOnUse" color-interpolation-filters="sRGB">
<feFlood flood-opacity="0" result="BackgroundImageFix"/>
<feColorMatrix in="SourceAlpha" type="matrix" values="0 0 0 0 0 0 0 0 0 0 0 0 0 0 0 0 0 0 127 0" result="hardAlpha"/>
<feOffset dy="-1"/>
<feGaussianBlur stdDeviation="2"/>
<feComposite in2="hardAlpha" operator="out"/>
<feColorMatrix type="matrix" values="0 0 0 0 0.861719 0 0 0 0 0.861719 0 0 0 0 0.861719 0 0 0 0.6 0"/>
<feBlend mode="normal" in2="BackgroundImageFix" result="effect1_dropShadow_1055_2110"/>
<feBlend mode="normal" in="SourceGraphic" in2="effect1_dropShadow_1055_2110" result="shape"/>
</filter>
</defs>
</svg>
